<svg viewBox="0 0 72 72" xmlns="http://www.w3.org/2000/svg"><g style="fill:none;stroke:#000;stroke-linecap:round;stroke-linejoin:round;stroke-miterlimit:10;stroke-width:2"><path d="m20.072 42.7987-8.7837 8.0913c-.35-.6201-.57-1.44-.57-2.32v-26.51l15.92 14.69"/><path d="m43.7793 37.5991 16.8789-15.5891v26.56c0 .86-.2 1.65-.55 2.27l-12.2673-11.2325"/><path d="m11.354 21.6493-.0624-.039"/><path d="m26.6383 36.75 4.47 4.13c.24.22.48.41.72.57 2.4301 1.8 5.26 1.8 7.6801-.01.23-.16.47-.36.69-.56l4.5-4.15"/><path d="m47.7628 39.536 12.3454 11.304c-.42.77-1.07 1.27-1.79 1.27h-45.26c-.7 0-1.34-.47-1.77-1.22l12.0781-11.126"/><path d="m49.4849 20.9h9.46c.59 0 1.16.35 1.57.91.05.06.1.13.14.2l-15.96 14.72-4.5 4.15c-.22.2-.46.4-.69.56-2.42 1.81-5.25 1.81-7.68.01-.24-.16-.48-.35-.72-.57l-4.47-4.13-15.92-14.69c.04-.06.09-.13.14-.2.42-.6.99-.96 1.61-.96h8.48"/><path d="m13.1875 52.11s-2.7511.14-2.4693-4.485"/></g></svg>