<svg xmlns="http://www.w3.org/2000/svg" viewBox="7.407501220703125 141.75601196289062 560.1849822998047 291.48799992370607"> <svg xmlns="http://www.w3.org/2000/svg" viewBox="-0.00016009912360459566 0.0007373737171292305 157.3105926513672 114.89288330078125" height="142.4075105259165" width="194.98345947265625" y="211.75601196289062" x="77.40750122070312" preserveAspectRatio="xMinYMin" style="overflow: visible;"><path class="a" d="M156.86283,54.31765,128.6574,37.29637l-8.37274-10.40376a.93011.93011,0,0,0-.61491-.34l-15.49757-1.805c-.028-.00181-.05471.00723-.08229.00723a.90549.90549,0,0,0-.13067.01176,56.7283,56.7283,0,0,0-.36216.10218L94.50723,30.196,80.896,33.8592,40.36792,4.89869c-.0113-.00814-.02622-.00723-.038-.01447a.91226.91226,0,0,0-.38793-.15011l-.01447-.00181-.01176-.0018L1.02808.00111A.8471.8471,0,0,0,.93223.00653C.91912.00653.906.00382.89289.00382.878.00472.86305-.0007.84813.00111.812.00382.7785.012.74233.01829A.9082.9082,0,0,0,.58589.06622C.56735.07255.54836.07707.53073.0843.49817.09967.46924.11685.43849.13494A.90984.90984,0,0,0,.31913.22266a.86854.86854,0,0,0-.06963.066C.23684.30223.21966.30856.2079.323.1975.33569.19479.35106.18529.36372A.85359.85359,0,0,0,.11838.465C.10933.48038.09486.49123.08673.5075.07587.52921.07587.55362.06683.57623a.88411.88411,0,0,0-.038.10851C.02433.70283.01258.71549.009.73357.00625.74714.01077.7607.00851.77427a.91378.91378,0,0,0-.00814.1266.835.835,0,0,0,.005.12569c.00317.02713.00271.05426.00859.08139a.89085.89085,0,0,0,.03889.11394.9104.9104,0,0,0,.05018.123c.01176.02261.01854.04521.03165.066a.83331.83331,0,0,0,.08681.10038A.88523.88523,0,0,0,.27663,1.589L57.60081,56.31611l-6.14188,8.56354a.91565.91565,0,0,0-.13971.30746c-.00136.00542-.00633.009-.00769.01446l-.00136.00543-.00045.00271-2.79694,11.5956c-.00542.02261.00317.04431-.00045.06691a.82291.82291,0,0,0-.024.09586l-1.43691,24.24377v.00091a.92736.92736,0,0,0,.1257.52177l7.44766,12.70153a.9256.9256,0,0,0,.79848.45756.78755.78755,0,0,0,.11213-.00723.92439.92439,0,0,0,.77587-.6547L67.34308,77.04585l20.61534-7.47841a.9132.9132,0,0,0,.40964-.29479L103.579,50.1245l22.13228-6.14821,30.3323,11.99438a.94213.94213,0,0,0,.34091.06511.92555.92555,0,0,0,.47837-1.71813ZM66.39675,75.02749,54.004,65.61664,83.01472,52.33546,68.22159,72.5362ZM59.41208,55.117l-5.215-14.32562,28.176,9.06994L66.08839,53.5888ZM28.39343,20.15663,5.60736,3.24838l32.89051,9.55735L50.14049,36.29352ZM53.2069,38.30826,41.28758,14.26343l36.60891,20.113Zm3.44441,1.32748,23.43625-3.73106,1.1412,3.35307,3.16589,9.30867L67.26621,43.053ZM82.44773,37.0929,100.088,48.50583l-13.56964.55162Zm2.46869-.60948L106.923,40.03724l-4.2257,7.95044Zm-44.78271-24.969.12751-1.19.32057-2.99679L67.42311,26.5083ZM77.2644,52.93048,54.99648,63.12535l4.3731-6.09848ZM52.77918,67.01285l11.19319,8.49934-2.53018.10128-10.84233.434Zm-2.4922,10.902,14.3957-.576L49.08338,98.235Zm74.29121-42.73361-13.48555-6.93854-2.069-1.06434,10.0556,1.17014Zm-20.48378-8.45683L124.65279,37.3027l-15.21136,1.02545-.86088.05788L96.67207,31.074Zm-9.36654,5.32983,9.1459,5.61559-18.7566-3.02935ZM38.36765,10.61284l-.02351.21884L12.14893,3.21944,38.81166,6.46129Zm-26.00983-.04973L51.90474,39.90884l4.69231,12.88962ZM49.08519,101.3276,64.2224,81.05091,55.143,111.65811ZM87.08037,67.91623,69.1331,74.427,86.3488,50.91936l.63164-.02532,14.07649-.57241ZM126.10371,42.1406a.92463.92463,0,0,0-.34092-.06511.89027.89027,0,0,0-.24777.03437l-20.64383,5.735,4.053-7.6249,18.8841-1.27323,18.592,11.22032Z" style="fill: #ffbf00; fill-opacity: 1;"></path></svg> <svg y="352.16401196289064" viewBox="1.4600000381469727 5.159999847412109 253.9099884033203 11.079999923706055" x="202.40750122070312" height="11.079999923706055" width="253.9099884033203" xmlns="http://www.w3.org/2000/svg" style="overflow: visible;"><g fill="#ffbf00" fill-opacity="1" style=""><path d="M1.46 5.32L4.36 5.32Q5.68 5.32 6.54 5.65Q7.40 5.98 7.82 6.64Q8.25 7.31 8.25 8.34L8.25 8.34Q8.25 9.19 7.94 9.76Q7.63 10.33 7.13 10.68Q6.64 11.03 6.07 11.22L6.07 11.22L9.01 16.03L7.56 16.03L4.94 11.56L2.71 11.56L2.71 16.03L1.46 16.03L1.46 5.32ZM4.28 6.40L4.28 6.40L2.71 6.40L2.71 10.51L4.41 10.51Q5.72 10.51 6.34 9.98Q6.96 9.44 6.96 8.40L6.96 8.40Q6.96 7.31 6.30 6.86Q5.65 6.40 4.28 6.40ZM22.71 10.66L22.71 10.66Q22.71 11.90 22.39 12.92Q22.08 13.93 21.46 14.66Q20.84 15.39 19.93 15.78Q19.01 16.18 17.80 16.18L17.80 16.18Q16.56 16.18 15.63 15.78Q14.70 15.39 14.09 14.66Q13.48 13.92 13.18 12.91Q12.87 11.89 12.87 10.65L12.87 10.65Q12.87 9.01 13.42 7.77Q13.96 6.53 15.06 5.84Q16.16 5.16 17.82 5.16L17.82 5.16Q19.41 5.16 20.50 5.84Q21.59 6.52 22.15 7.75Q22.71 8.99 22.71 10.66ZM14.18 10.66L14.18 10.66Q14.18 12.03 14.57 13.02Q14.96 14.02 15.76 14.56Q16.56 15.10 17.80 15.10L17.80 15.10Q19.05 15.10 19.84 14.56Q20.64 14.02 21.02 13.02Q21.40 12.03 21.40 10.66L21.40 10.66Q21.40 8.59 20.53 7.42Q19.66 6.25 17.82 6.25L17.82 6.25Q16.58 6.25 15.77 6.79Q14.97 7.32 14.58 8.31Q14.18 9.29 14.18 10.66ZM27.79 16.03L27.79 5.32L30.82 5.32Q32.83 5.32 33.84 5.93Q34.85 6.53 34.85 7.97L34.85 7.97Q34.85 8.59 34.61 9.09Q34.37 9.58 33.92 9.90Q33.47 10.22 32.80 10.35L32.80 10.35L32.80 10.42Q33.50 10.53 34.05 10.83Q34.59 11.12 34.89 11.65Q35.20 12.17 35.20 12.99L35.20 12.99Q35.20 13.97 34.74 14.66Q34.29 15.34 33.45 15.68Q32.62 16.03 31.47 16.03L31.47 16.03L27.79 16.03ZM29.04 6.39L29.04 9.92L31.09 9.92Q32.48 9.92 33.02 9.46Q33.56 8.99 33.56 8.11L33.56 8.11Q33.56 7.19 32.92 6.79Q32.28 6.39 30.88 6.39L30.88 6.39L29.04 6.39ZM31.15 10.96L29.04 10.96L29.04 14.97L31.26 14.97Q32.69 14.97 33.28 14.41Q33.88 13.85 33.88 12.90L33.88 12.90Q33.88 12.29 33.61 11.86Q33.34 11.43 32.74 11.20Q32.15 10.96 31.15 10.96L31.15 10.96ZM47.04 5.32L48.28 5.32L48.28 12.25Q48.28 13.39 47.82 14.27Q47.37 15.16 46.44 15.67Q45.52 16.18 44.13 16.18L44.13 16.18Q42.14 16.18 41.11 15.10Q40.07 14.03 40.07 12.22L40.07 12.22L40.07 5.32L41.32 5.32L41.32 12.26Q41.32 13.62 42.04 14.36Q42.77 15.10 44.20 15.10L44.20 15.10Q45.18 15.10 45.81 14.75Q46.43 14.39 46.74 13.75Q47.04 13.11 47.04 12.27L47.04 12.27L47.04 5.32ZM59.86 13.18L59.86 13.18Q59.86 14.14 59.39 14.81Q58.91 15.48 58.06 15.83Q57.21 16.18 56.06 16.18L56.06 16.18Q55.46 16.18 54.91 16.12Q54.37 16.06 53.92 15.95Q53.46 15.84 53.12 15.68L53.12 15.68L53.12 14.49Q53.67 14.71 54.46 14.91Q55.25 15.10 56.11 15.10L56.11 15.10Q56.92 15.10 57.48 14.89Q58.03 14.67 58.32 14.26Q58.61 13.86 58.61 13.29L58.61 13.29Q58.61 12.74 58.37 12.37Q58.13 12.00 57.57 11.69Q57.01 11.39 56.04 11.04L56.04 11.04Q55.36 10.80 54.84 10.51Q54.32 10.22 53.97 9.86Q53.62 9.49 53.44 9.01Q53.26 8.53 53.26 7.90L53.26 7.90Q53.26 7.05 53.69 6.43Q54.13 5.82 54.90 5.50Q55.68 5.17 56.68 5.17L56.68 5.17Q57.54 5.17 58.26 5.33Q58.99 5.49 59.60 5.76L59.60 5.76L59.21 6.83Q58.63 6.59 57.99 6.43Q57.34 6.27 56.65 6.27L56.65 6.27Q55.96 6.27 55.49 6.47Q55.02 6.67 54.77 7.04Q54.52 7.40 54.52 7.91L54.52 7.91Q54.52 8.47 54.76 8.85Q54.99 9.22 55.52 9.51Q56.04 9.80 56.91 10.11L56.91 10.11Q57.85 10.46 58.51 10.84Q59.17 11.23 59.51 11.78Q59.86 12.33 59.86 13.18ZM68.03 6.42L68.03 16.03L66.78 16.03L66.78 6.42L63.41 6.42L63.41 5.32L71.38 5.32L71.38 6.42L68.03 6.42ZM75.34 15.27L75.34 15.27Q75.34 14.76 75.58 14.54Q75.83 14.33 76.19 14.33L76.19 14.33Q76.57 14.33 76.82 14.54Q77.08 14.76 77.08 15.27L77.08 15.27Q77.08 15.78 76.82 16.01Q76.57 16.24 76.19 16.24L76.19 16.24Q75.83 16.24 75.58 16.01Q75.34 15.78 75.34 15.27ZM93.52 6.27L93.52 6.27Q92.63 6.27 91.92 6.57Q91.22 6.88 90.72 7.45Q90.23 8.03 89.96 8.84Q89.70 9.65 89.70 10.67L89.70 10.67Q89.70 12.02 90.12 13.01Q90.54 14.00 91.38 14.55Q92.22 15.09 93.48 15.09L93.48 15.09Q94.20 15.09 94.83 14.97Q95.46 14.85 96.07 14.66L96.07 14.66L96.07 15.75Q95.48 15.97 94.83 16.07Q94.19 16.18 93.30 16.18L93.30 16.18Q91.67 16.18 90.58 15.50Q89.48 14.82 88.94 13.59Q88.39 12.35 88.39 10.66L88.39 10.66Q88.39 9.45 88.73 8.44Q89.07 7.43 89.73 6.70Q90.38 5.97 91.34 5.57Q92.29 5.17 93.53 5.17L93.53 5.17Q94.34 5.17 95.10 5.33Q95.85 5.49 96.46 5.79L96.46 5.79L95.96 6.85Q95.45 6.61 94.84 6.44Q94.23 6.27 93.52 6.27ZM107.09 16.03L101.09 16.03L101.09 5.32L102.33 5.32L102.33 14.92L107.09 14.92L107.09 16.03ZM117.58 14.93L117.58 16.03L111.62 16.03L111.62 5.32L117.58 5.32L117.58 6.42L112.86 6.42L112.86 9.89L117.31 9.89L117.31 10.97L112.86 10.97L112.86 14.93L117.58 14.93ZM130.66 16.03L129.37 16.03L128.05 12.63L123.76 12.63L122.45 16.03L121.19 16.03L125.38 5.28L126.50 5.28L130.66 16.03ZM124.18 11.53L127.68 11.53L126.42 8.15Q126.38 8.02 126.28 7.72Q126.18 7.42 126.08 7.10Q125.98 6.77 125.91 6.58L125.91 6.58Q125.84 6.88 125.75 7.17Q125.67 7.47 125.59 7.72Q125.51 7.98 125.45 8.15L125.45 8.15L124.18 11.53ZM143.21 5.32L143.21 16.03L141.77 16.03L135.94 7.04L135.88 7.04Q135.90 7.40 135.93 7.86Q135.96 8.31 135.98 8.83Q135.99 9.35 135.99 9.88L135.99 9.88L135.99 16.03L134.84 16.03L134.84 5.32L136.26 5.32L142.08 14.29L142.13 14.29Q142.12 14.03 142.09 13.56Q142.07 13.09 142.05 12.54Q142.04 12.00 142.04 11.53L142.04 11.53L142.04 5.32L143.21 5.32ZM148.46 15.27L148.46 15.27Q148.46 14.76 148.71 14.54Q148.96 14.33 149.32 14.33L149.32 14.33Q149.69 14.33 149.95 14.54Q150.21 14.76 150.21 15.27L150.21 15.27Q150.21 15.78 149.95 16.01Q149.69 16.24 149.32 16.24L149.32 16.24Q148.96 16.24 148.71 16.01Q148.46 15.78 148.46 15.27ZM168.11 13.18L168.11 13.18Q168.11 14.14 167.64 14.81Q167.17 15.48 166.32 15.83Q165.47 16.18 164.32 16.18L164.32 16.18Q163.71 16.18 163.17 16.12Q162.62 16.06 162.17 15.95Q161.72 15.84 161.37 15.68L161.37 15.68L161.37 14.49Q161.92 14.71 162.71 14.91Q163.50 15.10 164.37 15.10L164.37 15.10Q165.17 15.10 165.73 14.89Q166.29 14.67 166.58 14.26Q166.86 13.86 166.86 13.29L166.86 13.29Q166.86 12.74 166.62 12.37Q166.38 12.00 165.82 11.69Q165.26 11.39 164.29 11.04L164.29 11.04Q163.61 10.80 163.09 10.51Q162.57 10.22 162.22 9.86Q161.87 9.49 161.69 9.01Q161.51 8.53 161.51 7.90L161.51 7.90Q161.51 7.05 161.95 6.43Q162.38 5.82 163.16 5.50Q163.93 5.17 164.93 5.17L164.93 5.17Q165.79 5.17 166.52 5.33Q167.25 5.49 167.85 5.76L167.85 5.76L167.47 6.83Q166.89 6.59 166.24 6.43Q165.59 6.27 164.90 6.27L164.90 6.27Q164.21 6.27 163.74 6.47Q163.27 6.67 163.02 7.04Q162.77 7.40 162.77 7.91L162.77 7.91Q162.77 8.47 163.01 8.85Q163.25 9.22 163.77 9.51Q164.29 9.80 165.16 10.11L165.16 10.11Q166.10 10.46 166.76 10.84Q167.42 11.23 167.77 11.78Q168.11 12.33 168.11 13.18ZM177.57 6.27L177.57 6.27Q176.68 6.27 175.98 6.57Q175.27 6.88 174.78 7.45Q174.28 8.03 174.02 8.84Q173.75 9.65 173.75 10.67L173.75 10.67Q173.75 12.02 174.18 13.01Q174.60 14.00 175.44 14.55Q176.27 15.09 177.53 15.09L177.53 15.09Q178.25 15.09 178.88 14.97Q179.52 14.85 180.12 14.66L180.12 14.66L180.12 15.75Q179.53 15.97 178.89 16.07Q178.24 16.18 177.36 16.18L177.36 16.18Q175.72 16.18 174.63 15.50Q173.53 14.82 172.99 13.59Q172.44 12.35 172.44 10.66L172.44 10.66Q172.44 9.45 172.78 8.44Q173.12 7.43 173.78 6.70Q174.44 5.97 175.39 5.57Q176.35 5.17 177.58 5.17L177.58 5.17Q178.40 5.17 179.15 5.33Q179.91 5.49 180.51 5.79L180.51 5.79L180.02 6.85Q179.50 6.61 178.89 6.44Q178.28 6.27 177.57 6.27ZM193.15 16.03L191.86 16.03L190.54 12.63L186.25 12.63L184.94 16.03L183.68 16.03L187.87 5.28L188.99 5.28L193.15 16.03ZM186.66 11.53L190.17 11.53L188.91 8.15Q188.87 8.02 188.77 7.72Q188.67 7.42 188.57 7.10Q188.47 6.77 188.40 6.58L188.40 6.58Q188.33 6.88 188.24 7.17Q188.16 7.47 188.08 7.72Q188.00 7.98 187.94 8.15L187.94 8.15L186.66 11.53ZM203.32 16.03L197.33 16.03L197.33 5.32L198.57 5.32L198.57 14.92L203.32 14.92L203.32 16.03ZM215.86 16.03L214.57 16.03L213.25 12.63L208.96 12.63L207.65 16.03L206.39 16.03L210.58 5.28L211.70 5.28L215.86 16.03ZM209.38 11.53L212.88 11.53L211.63 8.15Q211.58 8.02 211.48 7.72Q211.39 7.42 211.28 7.10Q211.18 6.77 211.11 6.58L211.11 6.58Q211.04 6.88 210.96 7.17Q210.87 7.47 210.79 7.72Q210.71 7.98 210.65 8.15L210.65 8.15L209.38 11.53ZM220.04 16.03L220.04 5.32L223.07 5.32Q225.08 5.32 226.09 5.93Q227.10 6.53 227.10 7.97L227.10 7.97Q227.10 8.59 226.86 9.09Q226.62 9.58 226.17 9.90Q225.72 10.22 225.05 10.35L225.05 10.35L225.05 10.42Q225.75 10.53 226.29 10.83Q226.84 11.12 227.14 11.65Q227.45 12.17 227.45 12.99L227.45 12.99Q227.45 13.97 226.99 14.66Q226.54 15.34 225.70 15.68Q224.87 16.03 223.72 16.03L223.72 16.03L220.04 16.03ZM221.29 6.39L221.29 9.92L223.34 9.92Q224.73 9.92 225.27 9.46Q225.81 8.99 225.81 8.11L225.81 8.11Q225.81 7.19 225.17 6.79Q224.53 6.39 223.13 6.39L223.13 6.39L221.29 6.39ZM223.40 10.96L221.29 10.96L221.29 14.97L223.51 14.97Q224.94 14.97 225.53 14.41Q226.13 13.85 226.13 12.90L226.13 12.90Q226.13 12.29 225.86 11.86Q225.59 11.43 224.99 11.20Q224.40 10.96 223.40 10.96L223.40 10.96ZM238.43 16.03L232.43 16.03L232.43 5.32L233.68 5.32L233.68 14.92L238.43 14.92L238.43 16.03ZM248.92 14.93L248.92 16.03L242.96 16.03L242.96 5.32L248.92 5.32L248.92 6.42L244.20 6.42L244.20 9.89L248.65 9.89L248.65 10.97L244.20 10.97L244.20 14.93L248.92 14.93ZM253.63 15.27L253.63 15.27Q253.63 14.76 253.88 14.54Q254.13 14.33 254.49 14.33L254.49 14.33Q254.86 14.33 255.12 14.54Q255.37 14.76 255.37 15.27L255.37 15.27Q255.37 15.78 255.12 16.01Q254.86 16.24 254.49 16.24L254.49 16.24Q254.13 16.24 253.88 16.01Q253.63 15.78 253.63 15.27Z" transform="translate(0, 0)"></path></g></svg> <svg y="303.48601196289064" viewBox="2.259999990463257 15.130000114440918 284.8899841308594 32.32999801635742" x="212.70249938964844" height="32.32999801635742" width="284.8899841308594" xmlns="http://www.w3.org/2000/svg" style="overflow: visible;"><g fill="#ffffff" fill-opacity="1" style=""><path d="M22.02 38.67L22.02 38.67Q22.02 41.46 20.64 43.43Q19.25 45.40 16.76 46.43Q14.27 47.46 10.89 47.46L10.89 47.46Q9.11 47.46 7.52 47.29Q5.93 47.12 4.60 46.79Q3.27 46.47 2.26 46.00L2.26 46.00L2.26 42.50Q3.87 43.16 6.19 43.73Q8.51 44.30 11.04 44.30L11.04 44.30Q13.41 44.30 15.04 43.67Q16.67 43.03 17.52 41.84Q18.37 40.65 18.37 38.97L18.37 38.97Q18.37 37.36 17.66 36.28Q16.95 35.19 15.31 34.30Q13.66 33.41 10.83 32.40L10.83 32.40Q8.83 31.69 7.30 30.84Q5.78 29.99 4.75 28.92Q3.72 27.84 3.19 26.43Q2.66 25.01 2.66 23.18L2.66 23.18Q2.66 20.67 3.94 18.87Q5.22 17.08 7.49 16.12Q9.75 15.17 12.70 15.17L12.70 15.17Q15.21 15.17 17.35 15.64Q19.49 16.11 21.27 16.91L21.27 16.91L20.13 20.04Q18.43 19.34 16.53 18.86Q14.63 18.39 12.61 18.39L12.61 18.39Q10.59 18.39 9.21 18.98Q7.82 19.57 7.09 20.65Q6.36 21.72 6.36 23.20L6.36 23.20Q6.36 24.86 7.06 25.95Q7.76 27.05 9.29 27.90Q10.83 28.75 13.36 29.67L13.36 29.67Q16.13 30.68 18.07 31.81Q20.00 32.94 21.01 34.56Q22.02 36.18 22.02 38.67ZM54.91 47.03L51.13 47.03L47.26 37.06L34.67 37.06L30.82 47.03L27.13 47.03L39.42 15.49L42.70 15.49L54.91 47.03ZM35.89 33.82L46.16 33.82L42.49 23.91Q42.36 23.53 42.07 22.64Q41.78 21.76 41.48 20.82Q41.18 19.87 40.98 19.29L40.98 19.29Q40.77 20.17 40.52 21.04Q40.28 21.91 40.04 22.66Q39.80 23.40 39.63 23.91L39.63 23.91L35.89 33.82ZM75.67 33.84L75.67 30.57L86.65 30.57L86.65 45.80Q84.18 46.64 81.57 47.05Q78.96 47.46 75.74 47.46L75.74 47.46Q70.84 47.46 67.48 45.50Q64.12 43.55 62.38 39.93Q60.63 36.31 60.63 31.32L60.63 31.32Q60.63 26.45 62.56 22.82Q64.48 19.19 68.12 17.18Q71.76 15.17 76.88 15.17L76.88 15.17Q79.50 15.17 81.85 15.65Q84.20 16.13 86.22 17.02L86.22 17.02L84.83 20.20Q83.09 19.44 80.99 18.91Q78.90 18.37 76.66 18.37L76.66 18.37Q72.82 18.37 70.08 19.96Q67.34 21.55 65.89 24.45Q64.44 27.35 64.44 31.32L64.44 31.32Q64.44 35.26 65.71 38.17Q66.97 41.08 69.66 42.69Q72.34 44.30 76.58 44.30L76.58 44.30Q78.70 44.30 80.23 44.05Q81.75 43.81 83 43.46L83 43.46L83 33.84L75.67 33.84ZM114.72 43.81L114.72 47.03L97.24 47.03L97.24 15.62L114.72 15.62L114.72 18.84L100.89 18.84L100.89 29.00L113.93 29.00L113.93 32.18L100.89 32.18L100.89 43.81L114.72 43.81ZM152.54 18.39L152.54 18.39Q149.94 18.39 147.87 19.28Q145.80 20.17 144.35 21.86Q142.90 23.55 142.12 25.93Q141.35 28.32 141.35 31.30L141.35 31.30Q141.35 35.26 142.58 38.17Q143.82 41.08 146.28 42.67Q148.74 44.26 152.44 44.26L152.44 44.26Q154.54 44.26 156.40 43.90Q158.26 43.55 160.02 43.01L160.02 43.01L160.02 46.19Q158.30 46.84 156.41 47.15Q154.52 47.46 151.92 47.46L151.92 47.46Q147.13 47.46 143.92 45.47Q140.71 43.48 139.10 39.85Q137.50 36.22 137.50 31.28L137.50 31.28Q137.50 27.71 138.50 24.76Q139.50 21.81 141.42 19.66Q143.35 17.51 146.15 16.34Q148.96 15.17 152.59 15.17L152.59 15.17Q154.97 15.17 157.18 15.64Q159.40 16.11 161.18 16.99L161.18 16.99L159.72 20.09Q158.21 19.40 156.42 18.90Q154.63 18.39 152.54 18.39ZM197.07 31.28L197.07 31.28Q197.07 34.91 196.15 37.89Q195.22 40.86 193.41 43.00Q191.59 45.14 188.91 46.30Q186.22 47.46 182.68 47.46L182.68 47.46Q179.03 47.46 176.31 46.30Q173.59 45.14 171.80 42.99Q170.00 40.84 169.11 37.86Q168.22 34.87 168.22 31.24L168.22 31.24Q168.22 26.43 169.81 22.79Q171.40 19.16 174.63 17.14Q177.87 15.13 182.74 15.13L182.74 15.13Q187.40 15.13 190.59 17.12Q193.79 19.12 195.43 22.74Q197.07 26.36 197.07 31.28ZM172.06 31.28L172.06 31.28Q172.06 35.28 173.20 38.20Q174.34 41.12 176.69 42.71Q179.05 44.30 182.68 44.30L182.68 44.30Q186.33 44.30 188.66 42.71Q190.99 41.12 192.11 38.20Q193.23 35.28 193.23 31.28L193.23 31.28Q193.23 25.20 190.68 21.77Q188.13 18.35 182.74 18.35L182.74 18.35Q179.09 18.35 176.73 19.92Q174.36 21.48 173.21 24.37Q172.06 27.26 172.06 31.28ZM232.00 31.02L232.00 31.02Q232.00 36.33 230.06 39.89Q228.13 43.44 224.47 45.24Q220.80 47.03 215.58 47.03L215.58 47.03L207.05 47.03L207.05 15.62L216.53 15.62Q221.32 15.62 224.78 17.37Q228.24 19.12 230.12 22.55Q232.00 25.97 232.00 31.02ZM228.15 31.15L228.15 31.15Q228.15 26.92 226.75 24.17Q225.34 21.42 222.62 20.08Q219.90 18.73 215.97 18.73L215.97 18.73L210.71 18.73L210.71 43.89L215.15 43.89Q221.64 43.89 224.90 40.69Q228.15 37.49 228.15 31.15ZM259.47 43.81L259.47 47.03L241.98 47.03L241.98 15.62L259.47 15.62L259.47 18.84L245.63 18.84L245.63 29.00L258.67 29.00L258.67 32.18L245.63 32.18L245.63 43.81L259.47 43.81ZM287.15 38.67L287.15 38.67Q287.15 41.46 285.77 43.43Q284.38 45.40 281.89 46.43Q279.40 47.46 276.03 47.46L276.03 47.46Q274.24 47.46 272.65 47.29Q271.06 47.12 269.73 46.79Q268.40 46.47 267.39 46.00L267.39 46.00L267.39 42.50Q269 43.16 271.32 43.73Q273.64 44.30 276.18 44.30L276.18 44.30Q278.54 44.30 280.17 43.67Q281.80 43.03 282.65 41.84Q283.50 40.65 283.50 38.97L283.50 38.97Q283.50 37.36 282.79 36.28Q282.08 35.19 280.44 34.30Q278.80 33.41 275.96 32.40L275.96 32.40Q273.96 31.69 272.44 30.84Q270.91 29.99 269.88 28.92Q268.85 27.84 268.32 26.43Q267.80 25.01 267.80 23.18L267.80 23.18Q267.80 20.67 269.08 18.87Q270.35 17.08 272.62 16.12Q274.89 15.17 277.83 15.17L277.83 15.17Q280.34 15.17 282.48 15.64Q284.62 16.11 286.40 16.91L286.40 16.91L285.26 20.04Q283.57 19.34 281.67 18.86Q279.76 18.39 277.74 18.39L277.74 18.39Q275.72 18.39 274.34 18.98Q272.95 19.57 272.22 20.65Q271.49 21.72 271.49 23.20L271.49 23.20Q271.49 24.86 272.19 25.95Q272.89 27.05 274.42 27.90Q275.96 28.75 278.50 29.67L278.50 29.67Q281.27 30.68 283.20 31.81Q285.13 32.94 286.14 34.56Q287.15 36.18 287.15 38.67Z" transform="translate(0, 0)"></path></g></svg></svg>